<svg width="1029" height="334" viewBox="0 0 1029 334" fill="none" xmlns="http://www.w3.org/2000/svg">
<path opacity="0.36" d="M826.174 38.0628C849.425 36.2312 873.69 41.2326 895.489 52.3497C917.288 63.4668 935.502 80.1285 947.519 99.9455L1265.14 623.754C1277.15 643.56 1282.35 665.501 1280 686.435C1277.65 707.368 1267.87 726.219 1252.06 740.287L833.747 1112.46C817.93 1126.54 796.89 1135.1 773.644 1136.93C750.397 1138.76 726.138 1133.76 704.343 1122.64L128.25 828.85C106.455 817.735 88.2443 801.078 76.2279 781.266C64.2114 761.454 59.0063 739.505 61.3587 718.566L123.569 164.784C125.92 143.851 135.703 125.001 151.517 110.934C167.33 96.8665 188.363 88.3044 211.601 86.4738L826.174 38.0628Z" fill="url(#paint0_linear)"/>
<defs>
<linearGradient id="paint0_linear" x1="1150.57" y1="79.6718" x2="161.539" y2="508.036" gradientUnits="userSpaceOnUse">
<stop stop-color="#374D83"/>
<stop offset="1" stop-color="#479DD5"/>
</linearGradient>
</defs>
</svg>
