<svg width="1440" height="1024" viewBox="0 0 1440 1024" fill="none" xmlns="http://www.w3.org/2000/svg">
<path opacity="0.36" d="M1170.3 426.852C1198.24 424.904 1227.26 431.281 1253.19 445.069C1279.12 458.856 1300.63 479.346 1314.64 503.6L1684.95 1144.69C1698.96 1168.93 1704.74 1195.68 1701.49 1221.12C1698.24 1246.56 1686.11 1269.38 1666.84 1286.3L1157.09 1734.05C1137.82 1750.98 1112.39 1761.14 1084.45 1763.09C1056.52 1765.03 1027.51 1758.66 1001.58 1744.87L316.303 1380.5C290.378 1366.72 268.868 1346.23 254.858 1321.98C240.849 1297.74 235.057 1270.97 238.315 1245.52L324.466 572.55C327.723 547.112 339.855 524.297 359.125 507.373C378.394 490.45 403.813 480.287 431.74 478.34L1170.3 426.852Z" fill="url(#paint0_linear)"/>
<path d="M1220.71 538.344C1252.11 533.925 1284.1 539.563 1312.1 554.45C1340.1 569.337 1362.66 592.708 1376.56 621.211L1743.85 1374.62C1757.73 1403.11 1762.25 1435.26 1756.74 1466.47C1751.24 1497.69 1736 1526.35 1713.2 1548.37L1110.15 2130.87C1087.35 2152.89 1058.16 2167.13 1026.76 2171.55C995.369 2175.96 963.383 2170.32 935.39 2155.44L195.475 1762.02C167.483 1747.13 144.922 1723.77 131.026 1695.27C117.13 1666.78 112.612 1634.61 118.121 1603.39L263.808 777.713C269.315 746.502 284.559 717.835 307.356 695.819C330.153 673.802 359.333 659.566 390.717 655.149L1220.71 538.344Z" fill="url(#paint1_linear)"/>
<defs>
<linearGradient id="paint0_linear" x1="1245.41" y1="850.58" x2="271.804" y2="1174.39" gradientUnits="userSpaceOnUse">
<stop stop-color="#374D83"/>
<stop offset="1" stop-color="#479DD5"/>
</linearGradient>
<linearGradient id="paint1_linear" x1="1827.21" y1="446.465" x2="229.29" y2="1069.1" gradientUnits="userSpaceOnUse">
<stop stop-color="#374D83"/>
<stop offset="1" stop-color="#479DD5"/>
</linearGradient>
</defs>
</svg>
