<svg width="963" height="350" viewBox="0 0 963 350" fill="none" xmlns="http://www.w3.org/2000/svg">
<path opacity="0.36" d="M762.329 14.5377C785.982 12.8614 810.503 17.7956 832.376 28.6327C854.25 39.4697 872.352 55.653 884.087 74.8616L1194.26 582.59C1205.99 601.788 1210.76 623.023 1207.88 643.252C1205 663.482 1194.62 681.668 1178.24 695.205L744.711 1053.34C728.318 1066.88 706.752 1075.08 683.104 1076.75C659.456 1078.42 634.941 1073.49 613.072 1062.65L35.0183 776.26C13.1496 765.425 -4.94954 749.246 -16.6846 730.043C-28.4196 710.839 -33.1878 689.597 -30.3059 669.361L45.9078 134.199C48.7884 113.97 59.1664 95.7842 75.555 82.2479C91.9437 68.7116 113.502 60.5189 137.141 58.8436L762.329 14.5377Z" fill="url(#paint0_linear)"/>
<defs>
<linearGradient id="paint0_linear" x1="846.554" y1="365.89" x2="29.2189" y2="650.827" gradientUnits="userSpaceOnUse">
<stop stop-color="#374D83"/>
<stop offset="1" stop-color="#479DD5"/>
</linearGradient>
</defs>
</svg>
