<svg width="921" height="260" viewBox="0 0 921 260" fill="none" xmlns="http://www.w3.org/2000/svg">
<path d="M715.461 2.54245C737.835 -0.522306 760.631 3.38785 780.581 13.7122C800.531 24.0366 816.609 40.2448 826.51 60.0124L1088.21 582.517C1098.11 602.273 1101.33 624.572 1097.4 646.217C1093.48 667.863 1082.62 687.745 1066.38 703.015L636.686 1106.98C620.438 1122.26 599.639 1132.14 577.269 1135.2C554.9 1138.26 532.109 1134.35 512.163 1124.03L-15.0494 851.182C-34.9948 840.86 -51.0703 824.656 -60.9717 804.894C-70.873 785.132 -74.0918 762.826 -70.1665 741.173L33.64 168.549C37.5636 146.904 48.4253 127.023 64.6688 111.754C80.9124 96.485 101.704 86.6118 124.066 83.5488L715.461 2.54245Z" fill="url(#paint0_linear)"/>
<defs>
<linearGradient id="paint0_linear" x1="1147.61" y1="-61.1774" x2="17.3261" y2="391.319" gradientUnits="userSpaceOnUse">
<stop stop-color="#374D83"/>
<stop offset="1" stop-color="#479DD5"/>
</linearGradient>
</defs>
</svg>
