<svg width="22" height="24" viewBox="0 0 22 24" fill="none" xmlns="http://www.w3.org/2000/svg">
<g clip-path="url(#clip0)">
<path d="M21.2008 1.15314L16.7321 0.0281436C16.2465 -0.0937314 15.7481 0.182831 15.5504 0.679706L13.4879 5.92971C13.3075 6.38908 13.4278 6.92814 13.7844 7.24221L16.3883 9.56721C14.8414 13.1625 12.1387 16.1531 8.77425 17.8735L6.643 15.0328C6.35081 14.6438 5.86096 14.5125 5.43987 14.7094L0.627365 16.9594C0.167599 17.1797 -0.0859173 17.7235 0.0258016 18.2531L1.05705 23.1281C1.16447 23.6344 1.57697 24 2.06252 24C13.0668 24 22 14.2735 22 2.25002C22 1.72502 21.6692 1.27033 21.2008 1.15314Z" fill="#009B61"/>
</g>
<defs>
<clipPath id="clip0">
<rect width="22" height="24" fill="white"/>
</clipPath>
</defs>
</svg>
