<svg xmlns="http://www.w3.org/2000/svg" width="874.122" height="851.549" viewBox="0 0 874.122 851.549"><defs><style>.a,.c{fill:#fff;}.a{opacity:0.05;}.b,.c{stroke:none;}</style></defs><g class="a" transform="translate(0 206.999) rotate(-17)"><path class="b" d="M 500.1080017089844 671 L 207.8919982910156 671 C 197.5543670654297 671 187.3521881103516 669.36669921875 177.5688171386719 666.1456298828125 C 168.0079040527344 662.997802734375 159.0237274169922 658.3954467773438 150.86572265625 652.466552734375 C 142.7076416015625 646.53759765625 135.5563659667969 639.4132690429688 129.6103668212891 631.2913818359375 C 123.5260009765625 622.98046875 118.8227310180664 613.781005859375 115.6309967041016 603.9483642578125 L 25.26763725280762 325.5693664550781 C 22.07863616943359 315.7452697753906 20.48218154907227 305.5458984375 20.52254486083984 295.2547302246094 C 20.56209182739258 285.197265625 22.16045379638672 275.2382507324219 25.27354621887207 265.654541015625 C 28.38654518127441 256.0707092285156 32.9455451965332 247.0734405517578 38.82381820678711 238.9125366210938 C 44.83872604370117 230.5619964599609 52.12400054931641 223.2476196289062 60.47736358642578 217.1727142333984 L 296.9486389160156 45.19981002807617 C 305.3136291503906 39.1164436340332 314.5302734375 34.43517303466797 324.3427124023438 31.28598976135254 C 333.9318237304688 28.20862579345703 343.909912109375 26.64817237854004 354 26.64817237854004 C 364.0899963378906 26.64817237854004 374.0680847167969 28.20862579345703 383.6571960449219 31.28598976135254 C 393.4696350097656 34.43517303466797 402.686279296875 39.1164436340332 411.05126953125 45.19981002807617 L 647.522705078125 217.1727142333984 C 655.8759765625 223.2476196289062 663.161376953125 230.5619964599609 669.1762084960938 238.9125366210938 C 675.054443359375 247.0734405517578 679.6134643554688 256.0707092285156 682.7264404296875 265.654541015625 C 685.8395385742188 275.2382507324219 687.43798828125 285.197265625 687.4774780273438 295.2548217773438 C 687.517822265625 305.5459899902344 685.92138671875 315.745361328125 682.7323608398438 325.5694580078125 L 592.3690185546875 603.9483642578125 C 589.1773681640625 613.781005859375 584.4739990234375 622.98046875 578.3896484375 631.2913818359375 C 572.4437255859375 639.4132690429688 565.2923583984375 646.53759765625 557.1343383789062 652.466552734375 C 548.9762573242188 658.3954467773438 539.9920654296875 662.997802734375 530.43115234375 666.1456298828125 C 520.6478271484375 669.36669921875 510.4456481933594 671 500.1080017089844 671 Z"/><path class="c" d="M 353.9999084472656 29.648193359375 C 334.003173828125 29.648193359375 314.8852844238281 35.86480712890625 298.7131042480469 47.6259765625 L 62.2418212890625 219.5988159179688 C 29.23089599609375 243.6059875488281 15.518798828125 285.820068359375 28.12109375 324.6431579589844 L 118.4844360351562 603.0221557617188 C 131.1002807617188 641.887451171875 167.0303344726562 668 207.8919982910156 668 L 500.1080017089844 668 C 540.9695434570312 668 576.8997192382812 641.8873291015625 589.5155639648438 603.0221557617188 L 679.87890625 324.6432495117188 C 692.481201171875 285.820068359375 678.7691040039062 243.6059875488281 645.75830078125 219.5988159179688 L 409.2868041992188 47.6259765625 C 393.1145324707031 35.86480712890625 373.9966430664062 29.648193359375 353.9999084472656 29.648193359375 M 353.9999694824219 23.648193359375 C 374.6417236328125 23.648193359375 395.2835083007812 30.0233154296875 412.8157348632812 42.7735595703125 L 649.2871704101562 214.7463684082031 C 684.3018798828125 240.2108154296875 698.9530639648438 285.3157043457031 685.5858154296875 326.4957275390625 L 595.2224731445312 604.8746337890625 C 581.8434448242188 646.0906982421875 543.4411010742188 674 500.1080017089844 674 L 207.8919982910156 674 C 164.5588989257812 674 126.1564331054688 646.0906982421875 112.7775268554688 604.8746337890625 L 22.4141845703125 326.4956359863281 C 9.04693603515625 285.3157043457031 23.6981201171875 240.2108154296875 58.71282958984375 214.7463684082031 L 295.1841735839844 42.7735595703125 C 312.7164001464844 30.0233154296875 333.3581848144531 23.648193359375 353.9999694824219 23.648193359375 Z"/></g></svg>