<svg width="1272" height="604" viewBox="0 0 1272 604" fill="none" xmlns="http://www.w3.org/2000/svg">
<path opacity="0.36" d="M1004.3 12.852C1032.24 10.9039 1061.26 17.281 1087.19 31.0687C1113.12 44.8564 1134.63 65.3464 1148.64 89.6004L1518.95 730.688C1532.96 754.928 1538.74 781.685 1535.49 807.124C1532.24 832.562 1520.11 855.378 1500.84 872.303L991.094 1320.05C971.819 1336.98 946.391 1347.14 918.455 1349.09C890.518 1351.03 861.508 1344.66 835.583 1330.87L150.303 966.501C124.378 952.716 102.868 932.231 88.8585 907.984C74.8485 883.737 69.0574 856.971 72.3151 831.524L158.466 158.55C161.723 133.112 173.855 110.297 193.125 93.3734C212.394 76.4501 237.813 66.287 265.74 64.3402L1004.3 12.852Z" fill="url(#paint0_linear)"/>
<defs>
<linearGradient id="paint0_linear" x1="1079.41" y1="436.58" x2="105.804" y2="760.387" gradientUnits="userSpaceOnUse">
<stop stop-color="#374D83"/>
<stop offset="1" stop-color="#479DD5"/>
</linearGradient>
</defs>
</svg>
